<svg xmlns="http://www.w3.org/2000/svg" width="1024" height="1024" version="1.2"><path d="M689.66 15.13s-59.47 69.39-66.84 165.41c-6.92 90.08 3.3 184.66 3.3 184.66s-55.91-112.26-188.56-106.92C329.37 262.63 178.53 357.03 188.15 512c6.44 103.8 25.55 87.36 13.63 95.05-23.37 15.07-54.67-8.92-70.36 17.29s-25.2 44.51-16.91 65.17c8.3 20.67-2.09 29.96 2.98 55.22 5.07 25.25 10.87 51.5 7.17 57.28-3.71 5.79-44.86 22.85-21.5 78.77 22.62 54.15 116.81-6.19 116.81-6.19l47.49 16.09s-9.58 69.2 34.62 78.86c95.79 20.92 109.13-103.08 109.13-103.08l14.32-7.16s9.49 71.53 64.48 114.57c64.03 50.13 179.47 77.92 265.06-14.32 96.01-103.47 13.9-216.93 13.9-216.93s72.32-8.79 103.04-77.24c38.64-86.1-22.68-114.96 1.38-114.96 24.39 0 71.49-62.68 53.94-119.7-11.82-38.43-27.24-49.63-51.72-50.99-26.6-1.48-43.99 26.99-60.76 11.26-16.76-15.74-34.56-28.24-45.45-25.79s-21.47.29-28.66-14.32-8.47-103.48 0-150.38c8.47-46.89 50.15-143.21 50.15-143.21s3.81-38.05-28.66-50.13c-32.46-12.08-72.57 7.97-72.57 7.97" style="fill:#fff"/><path d="M717.97 30.53s-49.91 77.09-58.87 182.66 14.83 230.63 4.74 299.54c-10.09 68.92-70.87 114.46-116.85 137.36s-179.9 42.01-241.43-33.6c-72.38-88.92-19.31-200.25 14.95-228.5 31.34-25.84 77.47-52.36 126.64-48.19 56.72 4.81 86.82 31.21 100.21 49.65 21.34 29.38 30.06 68.86 20.62 103.98-8.58 31.89-37.99 64.48-69.58 72.45-50.15 12.64-93.62 2.6-109.49-36.88-18.9-47.05-.87-77.46 19.11-84.35 19.99-6.88 39.37-7.48 48.06 7.89s-.49 39.53-12.35 36.22c-11.87-3.31-31.67-25.16-32.52-8.98-.89 16.69 2.95 43.83 36.8 50.93 27.44 5.76 49.4-31.81 47.96-70.2-1.16-30.92-35.62-50.37-70.02-52.44-35.86-2.15-91.21 26.41-84.14 94.39 7.06 67.98 47.1 109.58 117.33 107.01 74.47-2.72 143.04-45.31 145.49-158.34 2.14-98.67-88.98-147.47-164.77-150.37-75.79-2.91-207 62.12-205.97 211.97.92 133.59 100.31 177.67 153.31 190.92 37.68 9.41 115.47 3.79 115.47 3.79s-10.19 14.36-26.52 35.47c-15.05 19.47-72.84 65.28-72.84 65.28s-2.42-25.38-16.75-38.56c-14.33-13.17-46.87-9.69-46.87-9.69s-3.2 31.75 14.21 42.07c17.41 10.33 38.17 13.4 38.17 13.4s-27.64 16.25-49.62 23.39c-30.88 10.04-81.95-4.88-81.95-4.88s15.22-12.71 14.59-24.75c-.62-12.03-14.32-28.64-14.32-28.64s-17.13 12.68-18.31 26.21c-1.19 13.53 4.99 22.23 4.99 22.23s-26.26-11.53-48.17-27.92c-30.04-22.48-31.64-49.16-31.64-49.16s21.05 3.6 29.6-.75 14.86-20.17 14.86-20.17-11.39-5.16-22.09-3.63c-10.69 1.54-23.58 18.53-23.58 18.53s.6-31.56 15.17-45.83c9.84-9.62 21.98-17.4 36.51-15.28 7.04 1.03 13.2 3.33 16.25 7.87 10.71 15.93-21.45 21.48-21.45 21.48s23.11 4.72 29.94-13.31c4.07-10.72-5.82-20.68-14.78-24.4-21.89-9.06-44.59 6.3-44.59 6.3s3.52-11.8-1.51-23.9c-5.04-12.11-21.5-14.32-21.5-14.32s-15.41 19.42-4.12 33.08c9.41 11.37 19.85 10.03 19.85 10.03s-16.89 15.43-20.58 40.93c-2.88 19.89.45 36.22 8.87 51.38 11.11 20.01 21.8 28.13 21.8 28.13s-10.06-3.17-29.94 9.82c-23.8 15.54-21.99 43.02-21.99 43.02s33.36 11.04 54.27-9.35c14.3-13.95 9.33-34.36 9.33-34.36s34.54 22.67 60.45 30.27c42.31 12.4 69.91 8.1 69.91 8.1s-21.86 19.08-24.57 39.57c-2.71 20.5 2.67 44.06 2.67 44.06s51.49-10.56 61.82-39.21c10.33-28.66-21.92-47.32-21.92-47.32s47.66-19.64 68.69-36.33c15.91-12.62 49.6-39.22 49.6-39.22s-3.73 15.98-4.77 51.67c-1.63 56.16 44.18 155.76 166.92 156.49 91.64.55 136.56-97.26 137.46-147.22.91-49.96-24.3-127.33-116.61-129.1-92.31-1.76-120.15 76.88-120.13 115.47s49.31 87.19 91.48 85.04c42.17-2.16 72.78-43.86 75.44-76.86 2.73-33.81-37.11-57.96-63.82-47.99-26.71 9.98-39.11 34.08-37.09 51.81 2.02 17.72 13.84 22.93 25.47 22.91 11.62-.01 20.4-11.05 19.8-19.1-.59-8.05-22.53-1.91-18-15.81s16.99-20.06 31.5-14.66c8.31 3.09 18.48 11.66 17.6 24.47-.89 12.82-6.4 33.21-23.98 44.28-14.73 9.27-32.41 20.84-71.9-9.73-19.31-14.95-33.29-46.09-11.42-88.4 12.5-24.19 37.05-48.75 90.93-45.38 33.75 2.11 88.3 42.86 85.1 100.87-3.62 65.53-45.9 123.25-120.56 121.05-61.52-1.82-134.64-53.17-133.1-122.69 1.55-69.51 8.83-72.32 33.82-100.87 22.92-26.17 106.97-86.75 116.19-95.97 9.23-9.22 23.46-18.54 23.46-18.54s8.05 36.23 28.91 57.8 63.83 29.43 92.19 25.08c28.36-4.34 69.79-32.43 69.82-89.42s-58.31-76.27-86.19-75.79c-31.63.54-64.38 27.12-63.43 63.69 1.07 41.29 19.41 59.99 56.89 60.08 34.75.1 44.21-31.94 45.31-46.5 1.25-16.67-12.38-34.87-33.13-34.22-23.3.72-30.78 16.8-28.03 29.13 2.76 12.34 18.77 24.76 23.48 18.33 4.72-6.42-2-7.33-4.92-16.88s1.09-16.25 10.1-15.77 13.09 2.53 14.32 14.32-7.5 35.87-27.13 35.24c-16.91-.55-41.16-11.32-39.28-40.9s19.83-49.99 46.91-49.07c27.09.92 68.75 17.19 68.08 67.53-.63 46.91-48.2 63.83-78.44 64.42-35 .69-80.93-27.07-77.59-91.54 1.15-22.31 7.3-23.56 14.32-50.13 7.03-26.56 12.78-78.99 12.24-103.03-.55-24.04-3.62-44.43-3.62-44.43s9.19 14.29 20.67 27.38c11.49 13.09 34.24 34.47 34.24 34.47s-14.09 8.8-13.04 30.63c.79 16.7 24.29 32.04 24.29 32.04s15.4-13.43 14.99-27.9c-.49-17.18-14.33-29.01-14.33-29.01s20.27 14.95 45.67 15.64c26.44.72 50.38-10.71 50.38-10.71s-7.8 12.97.45 24.8c8.24 11.82 28.65 14.32 28.65 14.32s-.59-26.11-7.16-35.8c-5.7-8.41-15.26-6.77-15.26-6.77s6.86-2.45 13.71-15.8c6.8-13.26-1.5-29.1-1.5-29.1s1.65 14.36-3.9 26.91c-4.11 9.29-10.63 12.72-18.93 15.7-9.16 3.28-33.16 7.04-33.16 7.04s11.57-2.4 12.31-12.33c.75-9.92-3.42-21.46-3.42-21.46s-12.85 5.41-17.2 12.36c-7.87 12.58.33 20.99.33 20.99s-20.7-1.14-35.47-8.99c-13.85-7.36-33.86-25.22-33.86-25.22s21.88 5.78 28.89-6.3c5.56-9.59 7.16-21.48 7.16-21.48s-12.72-5.09-27.63.39c-14.11 5.18-13.96 21.6-13.96 21.6s-16.67-19.32-29.12-37.65c-12.44-18.33-15.25-34.47-15.25-34.47s-3.35-41.15-3.49-79.89 11.22-115.81 28.29-157.82c17.07-42 33.64-68.4 33.64-68.4s.6-5.91-15.29-15.66c-15.89-9.76-22.94-5.74-22.94-5.74" style="fill:#070"/></svg>